<svg id="visual" viewBox="0 0 900 600" width="900" height="600" xmlns="http://www.w3.org/2000/svg" xmlns:xlink="http://www.w3.org/1999/xlink" version="1.1"><g stroke-width="1" stroke-linejoin="bevel"><path d="M459 296L498 276.1L464 237.4Z" fill="#6746e3" stroke="#6746e3"></path><path d="M498 276.1L492 239L464 237.4Z" fill="#5c3ece" stroke="#5c3ece"></path><path d="M464 237.4L425 263.3L459 296Z" fill="#6242d8" stroke="#6242d8"></path><path d="M498 276.1L502 233.1L492 239Z" fill="#5136b9" stroke="#5136b9"></path><path d="M492 239L479 214.4L464 237.4Z" fill="#6242d8" stroke="#6242d8"></path><path d="M502 233.1L479 214.4L492 239Z" fill="#382388" stroke="#382388"></path><path d="M464 237.4L432 224.1L425 263.3Z" fill="#573ac3" stroke="#573ac3"></path><path d="M479 214.4L432 224.1L464 237.4Z" fill="#3d2691" stroke="#3d2691"></path><path d="M498 276.1L518 234L502 233.1Z" fill="#573ac3" stroke="#573ac3"></path><path d="M502 233.1L487 195.6L479 214.4Z" fill="#382388" stroke="#382388"></path><path d="M378 343L478 339.9L459 296Z" fill="#382388" stroke="#382388"></path><path d="M459 296L478 339.9L498 276.1Z" fill="#6242d8" stroke="#6242d8"></path><path d="M498 276.1L553 283.9L518 234Z" fill="#331f7e" stroke="#331f7e"></path><path d="M518 234L487 195.6L502 233.1Z" fill="#422a9b" stroke="#422a9b"></path><path d="M479 214.4L416 175.4L432 224.1Z" fill="#5c3ece" stroke="#5c3ece"></path><path d="M432 224.1L389 259L425 263.3Z" fill="#6242d8" stroke="#6242d8"></path><path d="M425 263.3L376 319L459 296Z" fill="#6746e3" stroke="#6746e3"></path><path d="M517 343.9L553 283.9L498 276.1Z" fill="#573ac3" stroke="#573ac3"></path><path d="M478 339.9L517 343.9L498 276.1Z" fill="#4c32af" stroke="#4c32af"></path><path d="M503 350.7L517 343.9L478 339.9Z" fill="#382388" stroke="#382388"></path><path d="M487 195.6L416 175.4L479 214.4Z" fill="#6242d8" stroke="#6242d8"></path><path d="M432 224.1L372 173.3L389 259Z" fill="#3d2691" stroke="#3d2691"></path><path d="M389 259L376 319L425 263.3Z" fill="#5136b9" stroke="#5136b9"></path><path d="M478 339.9L475 373.9L503 350.7Z" fill="#422a9b" stroke="#422a9b"></path><path d="M434 400.7L475 373.9L478 339.9Z" fill="#422a9b" stroke="#422a9b"></path><path d="M525 426.7L573 392.9L517 343.9Z" fill="#331f7e" stroke="#331f7e"></path><path d="M457 404.4L485 379.6L475 373.9Z" fill="#472ea5" stroke="#472ea5"></path><path d="M475 373.9L485 379.6L503 350.7Z" fill="#5136b9" stroke="#5136b9"></path><path d="M582 245.1L569 212.3L518 234Z" fill="#5c3ece" stroke="#5c3ece"></path><path d="M536 165.3L518 161.4L487 195.6Z" fill="#382388" stroke="#382388"></path><path d="M487 195.6L453 152.3L416 175.4Z" fill="#6746e3" stroke="#6746e3"></path><path d="M389 259L367 320.1L376 319Z" fill="#5c3ece" stroke="#5c3ece"></path><path d="M376 319L378 343L459 296Z" fill="#5136b9" stroke="#5136b9"></path><path d="M313 255.1L367 320.1L389 259Z" fill="#422a9b" stroke="#422a9b"></path><path d="M592 298L582 245.1L553 283.9Z" fill="#382388" stroke="#382388"></path><path d="M553 283.9L582 245.1L518 234Z" fill="#3d2691" stroke="#3d2691"></path><path d="M518 161.4L453 152.3L487 195.6Z" fill="#573ac3" stroke="#573ac3"></path><path d="M536 165.3L487 195.6L518 234Z" fill="#6242d8" stroke="#6242d8"></path><path d="M366 337.7L378 343L376 319Z" fill="#4c32af" stroke="#4c32af"></path><path d="M573 392.9L576 320.7L517 343.9Z" fill="#422a9b" stroke="#422a9b"></path><path d="M517 343.9L576 320.7L553 283.9Z" fill="#5c3ece" stroke="#5c3ece"></path><path d="M611 212.1L562 190.3L569 212.3Z" fill="#6242d8" stroke="#6242d8"></path><path d="M569 212.3L562 190.3L518 234Z" fill="#472ea5" stroke="#472ea5"></path><path d="M562 190.3L536 165.3L518 234Z" fill="#6746e3" stroke="#6746e3"></path><path d="M367 320.1L366 337.7L376 319Z" fill="#6746e3" stroke="#6746e3"></path><path d="M576 320.7L592 298L553 283.9Z" fill="#5136b9" stroke="#5136b9"></path><path d="M393 118.7L372 173.3L416 175.4Z" fill="#6746e3" stroke="#6746e3"></path><path d="M416 175.4L372 173.3L432 224.1Z" fill="#4c32af" stroke="#4c32af"></path><path d="M367 320.1L289 339L366 337.7Z" fill="#4c32af" stroke="#4c32af"></path><path d="M434 400.7L478 339.9L378 343Z" fill="#4c32af" stroke="#4c32af"></path><path d="M434 400.7L457 404.4L475 373.9Z" fill="#4c32af" stroke="#4c32af"></path><path d="M596 379.6L623 316L576 320.7Z" fill="#3d2691" stroke="#3d2691"></path><path d="M376 403.9L434 400.7L378 343Z" fill="#382388" stroke="#382388"></path><path d="M577 150.4L540 146.6L536 165.3Z" fill="#331f7e" stroke="#331f7e"></path><path d="M536 165.3L540 146.6L518 161.4Z" fill="#5c3ece" stroke="#5c3ece"></path><path d="M518 161.4L504 116.6L453 152.3Z" fill="#422a9b" stroke="#422a9b"></path><path d="M335 208.3L331 238L389 259Z" fill="#573ac3" stroke="#573ac3"></path><path d="M372 173.3L335 208.3L389 259Z" fill="#3d2691" stroke="#3d2691"></path><path d="M625 214.1L611 212.1L582 245.1Z" fill="#4c32af" stroke="#4c32af"></path><path d="M582 245.1L611 212.1L569 212.3Z" fill="#382388" stroke="#382388"></path><path d="M562 190.3L577 150.4L536 165.3Z" fill="#5136b9" stroke="#5136b9"></path><path d="M540 146.6L504 116.6L518 161.4Z" fill="#6242d8" stroke="#6242d8"></path><path d="M453 152.3L393 118.7L416 175.4Z" fill="#6746e3" stroke="#6746e3"></path><path d="M278 190.6L313 255.1L331 238Z" fill="#422a9b" stroke="#422a9b"></path><path d="M331 238L313 255.1L389 259Z" fill="#5136b9" stroke="#5136b9"></path><path d="M618 161.4L577 150.4L562 190.3Z" fill="#382388" stroke="#382388"></path><path d="M540 146.6L530 103.7L504 116.6Z" fill="#3d2691" stroke="#3d2691"></path><path d="M517 343.9L503 350.7L525 426.7Z" fill="#6746e3" stroke="#6746e3"></path><path d="M576 320.7L623 316L592 298Z" fill="#331f7e" stroke="#331f7e"></path><path d="M650 239.3L625 214.1L582 245.1Z" fill="#472ea5" stroke="#472ea5"></path><path d="M372 173.3L326 191.6L335 208.3Z" fill="#472ea5" stroke="#472ea5"></path><path d="M335 208.3L298 183.6L331 238Z" fill="#6746e3" stroke="#6746e3"></path><path d="M298 183.6L326 191.6L293 137.7Z" fill="#5136b9" stroke="#5136b9"></path><path d="M525 426.7L503 350.7L485 379.6Z" fill="#472ea5" stroke="#472ea5"></path><path d="M650 239.3L582 245.1L592 298Z" fill="#422a9b" stroke="#422a9b"></path><path d="M618 161.4L586 139.7L577 150.4Z" fill="#5c3ece" stroke="#5c3ece"></path><path d="M370 404.9L378 343L366 337.7Z" fill="#3d2691" stroke="#3d2691"></path><path d="M370 404.9L376 403.9L378 343Z" fill="#5136b9" stroke="#5136b9"></path><path d="M428 463.3L485 452.4L457 404.4Z" fill="#382388" stroke="#382388"></path><path d="M470 65.6L393 118.7L453 152.3Z" fill="#573ac3" stroke="#573ac3"></path><path d="M485 452.4L525 426.7L457 404.4Z" fill="#6242d8" stroke="#6242d8"></path><path d="M457 404.4L525 426.7L485 379.6Z" fill="#4c32af" stroke="#4c32af"></path><path d="M360 418.6L370 404.9L322 404.7Z" fill="#6746e3" stroke="#6746e3"></path><path d="M428 463.3L457 404.4L434 400.7Z" fill="#573ac3" stroke="#573ac3"></path><path d="M604 422.7L596 379.6L573 392.9Z" fill="#382388" stroke="#382388"></path><path d="M573 392.9L596 379.6L576 320.7Z" fill="#6746e3" stroke="#6746e3"></path><path d="M618 161.4L562 190.3L611 212.1Z" fill="#573ac3" stroke="#573ac3"></path><path d="M577 150.4L586 139.7L540 146.6Z" fill="#6746e3" stroke="#6746e3"></path><path d="M544 98.6L530 103.7L540 146.6Z" fill="#382388" stroke="#382388"></path><path d="M504 116.6L470 65.6L453 152.3Z" fill="#422a9b" stroke="#422a9b"></path><path d="M538 458.3L539 432.7L525 426.7Z" fill="#6242d8" stroke="#6242d8"></path><path d="M525 426.7L539 432.7L573 392.9Z" fill="#6242d8" stroke="#6242d8"></path><path d="M643 172.4L618 161.4L611 212.1Z" fill="#472ea5" stroke="#472ea5"></path><path d="M667 274.9L650 239.3L592 298Z" fill="#4c32af" stroke="#4c32af"></path><path d="M625 214.1L643 172.4L611 212.1Z" fill="#573ac3" stroke="#573ac3"></path><path d="M586 139.7L544 98.6L540 146.6Z" fill="#422a9b" stroke="#422a9b"></path><path d="M530 103.7L527 90.9L504 116.6Z" fill="#382388" stroke="#382388"></path><path d="M555 36.7L544 98.6L582 46.9Z" fill="#6242d8" stroke="#6242d8"></path><path d="M428 463.3L434 400.7L376 403.9Z" fill="#5136b9" stroke="#5136b9"></path><path d="M544 98.6L527 90.9L530 103.7Z" fill="#573ac3" stroke="#573ac3"></path><path d="M322 404.7L370 404.9L366 337.7Z" fill="#5c3ece" stroke="#5c3ece"></path><path d="M370 404.9L360 418.6L376 403.9Z" fill="#4c32af" stroke="#4c32af"></path><path d="M293 137.7L326 191.6L309 115.4Z" fill="#472ea5" stroke="#472ea5"></path><path d="M326 191.6L298 183.6L335 208.3Z" fill="#6746e3" stroke="#6746e3"></path><path d="M261 315.1L289 339L313 255.1Z" fill="#4c32af" stroke="#4c32af"></path><path d="M313 255.1L289 339L367 320.1Z" fill="#5136b9" stroke="#5136b9"></path><path d="M675 294.1L667 274.9L623 316Z" fill="#382388" stroke="#382388"></path><path d="M623 316L667 274.9L592 298Z" fill="#5136b9" stroke="#5136b9"></path><path d="M661 169.6L643 172.4L625 214.1Z" fill="#5c3ece" stroke="#5c3ece"></path><path d="M661 169.6L625 214.1L650 239.3Z" fill="#422a9b" stroke="#422a9b"></path><path d="M640 68.7L582 46.9L586 139.7Z" fill="#6242d8" stroke="#6242d8"></path><path d="M362 446.6L428 463.3L376 403.9Z" fill="#382388" stroke="#382388"></path><path d="M289 339L322 404.7L366 337.7Z" fill="#573ac3" stroke="#573ac3"></path><path d="M360 418.6L362 446.6L376 403.9Z" fill="#5c3ece" stroke="#5c3ece"></path><path d="M539 432.7L568 442.6L573 392.9Z" fill="#422a9b" stroke="#422a9b"></path><path d="M675 301.9L675 294.1L623 316Z" fill="#4c32af" stroke="#4c32af"></path><path d="M538 458.3L568 442.6L539 432.7Z" fill="#6242d8" stroke="#6242d8"></path><path d="M538 458.3L525 426.7L485 452.4Z" fill="#5136b9" stroke="#5136b9"></path><path d="M527 90.9L470 65.6L504 116.6Z" fill="#422a9b" stroke="#422a9b"></path><path d="M293 137.7L287 178.3L298 183.6Z" fill="#472ea5" stroke="#472ea5"></path><path d="M326 191.6L372 173.3L309 115.4Z" fill="#5c3ece" stroke="#5c3ece"></path><path d="M298 183.6L278 190.6L331 238Z" fill="#3d2691" stroke="#3d2691"></path><path d="M472 474.6L538 458.3L485 452.4Z" fill="#3d2691" stroke="#3d2691"></path><path d="M322 404.7L352 434.7L360 418.6Z" fill="#6746e3" stroke="#6746e3"></path><path d="M287 178.3L278 190.6L298 183.6Z" fill="#472ea5" stroke="#472ea5"></path><path d="M568 442.6L604 422.7L573 392.9Z" fill="#573ac3" stroke="#573ac3"></path><path d="M461 477.4L472 474.6L485 452.4Z" fill="#5c3ece" stroke="#5c3ece"></path><path d="M675 301.9L623 316L682 340.7Z" fill="#5136b9" stroke="#5136b9"></path><path d="M692 233L661 169.6L650 239.3Z" fill="#6746e3" stroke="#6746e3"></path><path d="M328 455.3L362 446.6L352 434.7Z" fill="#382388" stroke="#382388"></path><path d="M352 434.7L362 446.6L360 418.6Z" fill="#4c32af" stroke="#4c32af"></path><path d="M428 463.3L461 477.4L485 452.4Z" fill="#422a9b" stroke="#422a9b"></path><path d="M682 340.7L623 316L596 379.6Z" fill="#6242d8" stroke="#6242d8"></path><path d="M423 498.3L461 477.4L428 463.3Z" fill="#6746e3" stroke="#6746e3"></path><path d="M575 499.3L572 465.6L538 458.3Z" fill="#6242d8" stroke="#6242d8"></path><path d="M470 65.6L405 66.9L393 118.7Z" fill="#422a9b" stroke="#422a9b"></path><path d="M568 442.6L586 445.4L604 422.7Z" fill="#6242d8" stroke="#6242d8"></path><path d="M572 465.6L586 445.4L568 442.6Z" fill="#573ac3" stroke="#573ac3"></path><path d="M225 241.3L261 315.1L313 255.1Z" fill="#5c3ece" stroke="#5c3ece"></path><path d="M289 339L274 390.9L322 404.7Z" fill="#5136b9" stroke="#5136b9"></path><path d="M692 233L650 239.3L667 274.9Z" fill="#331f7e" stroke="#331f7e"></path><path d="M643 172.4L661 169.6L618 161.4Z" fill="#6746e3" stroke="#6746e3"></path><path d="M287 178.3L263 142.6L278 190.6Z" fill="#472ea5" stroke="#472ea5"></path><path d="M309 115.4L372 173.3L393 118.7Z" fill="#422a9b" stroke="#422a9b"></path><path d="M313 106.9L309 115.4L393 118.7Z" fill="#6746e3" stroke="#6746e3"></path><path d="M309 115.4L290 135.4L293 137.7Z" fill="#5136b9" stroke="#5136b9"></path><path d="M293 137.7L263 142.6L287 178.3Z" fill="#4c32af" stroke="#4c32af"></path><path d="M538 458.3L572 465.6L568 442.6Z" fill="#573ac3" stroke="#573ac3"></path><path d="M605 510.4L670 402.7L604 422.7Z" fill="#573ac3" stroke="#573ac3"></path><path d="M575 499.3L538 458.3L486 532.4Z" fill="#5c3ece" stroke="#5c3ece"></path><path d="M350 56.7L313 106.9L393 118.7Z" fill="#3d2691" stroke="#3d2691"></path><path d="M309 115.4L284 133.4L290 135.4Z" fill="#4c32af" stroke="#4c32af"></path><path d="M670 402.7L596 379.6L604 422.7Z" fill="#6746e3" stroke="#6746e3"></path><path d="M670 402.7L682 340.7L596 379.6Z" fill="#382388" stroke="#382388"></path><path d="M699 282.1L667 274.9L675 294.1Z" fill="#422a9b" stroke="#422a9b"></path><path d="M699 282.1L692 233L667 274.9Z" fill="#331f7e" stroke="#331f7e"></path><path d="M699 282.1L675 294.1L675 301.9Z" fill="#6242d8" stroke="#6242d8"></path><path d="M253 75.7L284 133.4L309 115.4Z" fill="#422a9b" stroke="#422a9b"></path><path d="M290 135.4L284 133.4L293 137.7Z" fill="#5136b9" stroke="#5136b9"></path><path d="M278 190.6L246 216.1L313 255.1Z" fill="#331f7e" stroke="#331f7e"></path><path d="M263 142.6L246 216.1L278 190.6Z" fill="#573ac3" stroke="#573ac3"></path><path d="M697 322.7L699 282.1L675 301.9Z" fill="#6746e3" stroke="#6746e3"></path><path d="M228 333.9L274 390.9L289 339Z" fill="#3d2691" stroke="#3d2691"></path><path d="M322 404.7L328 455.3L352 434.7Z" fill="#382388" stroke="#382388"></path><path d="M682 340.7L697 322.7L675 301.9Z" fill="#573ac3" stroke="#573ac3"></path><path d="M286 458.3L328 455.3L322 404.7Z" fill="#382388" stroke="#382388"></path><path d="M400 501.3L423 498.3L428 463.3Z" fill="#3d2691" stroke="#3d2691"></path><path d="M400 501.3L428 463.3L362 446.6Z" fill="#422a9b" stroke="#422a9b"></path><path d="M461 477.4L486 532.4L472 474.6Z" fill="#382388" stroke="#382388"></path><path d="M261 398.9L274 408.4L274 390.9Z" fill="#573ac3" stroke="#573ac3"></path><path d="M274 390.9L274 408.4L322 404.7Z" fill="#573ac3" stroke="#573ac3"></path><path d="M261 398.9L274 390.9L227 392.6Z" fill="#472ea5" stroke="#472ea5"></path><path d="M223 136.4L263 142.6L253 75.7Z" fill="#331f7e" stroke="#331f7e"></path><path d="M284 133.4L263 142.6L293 137.7Z" fill="#6746e3" stroke="#6746e3"></path><path d="M405 66.9L350 56.7L393 118.7Z" fill="#5136b9" stroke="#5136b9"></path><path d="M253 75.7L263 142.6L284 133.4Z" fill="#422a9b" stroke="#422a9b"></path><path d="M365 0L350 56.7L405 66.9Z" fill="#382388" stroke="#382388"></path><path d="M605 510.4L604 422.7L586 445.4Z" fill="#6242d8" stroke="#6242d8"></path><path d="M711 373.6L726 313L697 322.7Z" fill="#6242d8" stroke="#6242d8"></path><path d="M341 509.4L400 501.3L362 446.6Z" fill="#573ac3" stroke="#573ac3"></path><path d="M204 197.4L225 241.3L246 216.1Z" fill="#422a9b" stroke="#422a9b"></path><path d="M246 216.1L225 241.3L313 255.1Z" fill="#5c3ece" stroke="#5c3ece"></path><path d="M228 333.9L289 339L261 315.1Z" fill="#5136b9" stroke="#5136b9"></path><path d="M274 408.4L271 426.4L322 404.7Z" fill="#573ac3" stroke="#573ac3"></path><path d="M544 98.6L555 36.7L527 90.9Z" fill="#422a9b" stroke="#422a9b"></path><path d="M527 90.9L555 36.7L470 65.6Z" fill="#4c32af" stroke="#4c32af"></path><path d="M470 65.6L439 17.7L405 66.9Z" fill="#6242d8" stroke="#6242d8"></path><path d="M582 46.9L544 98.6L586 139.7Z" fill="#382388" stroke="#382388"></path><path d="M640 68.7L586 139.7L618 161.4Z" fill="#422a9b" stroke="#422a9b"></path><path d="M225 241.3L228 333.9L261 315.1Z" fill="#3d2691" stroke="#3d2691"></path><path d="M448 15.9L439 17.7L470 65.6Z" fill="#5136b9" stroke="#5136b9"></path><path d="M491 0L448 15.9L470 65.6Z" fill="#5136b9" stroke="#5136b9"></path><path d="M261 398.9L271 426.4L274 408.4Z" fill="#422a9b" stroke="#422a9b"></path><path d="M328 455.3L341 509.4L362 446.6Z" fill="#331f7e" stroke="#331f7e"></path><path d="M248 441.4L271 426.4L261 398.9Z" fill="#5136b9" stroke="#5136b9"></path><path d="M486 532.4L461 477.4L423 498.3Z" fill="#5c3ece" stroke="#5c3ece"></path><path d="M486 532.4L538 458.3L472 474.6Z" fill="#573ac3" stroke="#573ac3"></path><path d="M572 465.6L605 510.4L586 445.4Z" fill="#382388" stroke="#382388"></path><path d="M711 373.6L697 322.7L682 340.7Z" fill="#6746e3" stroke="#6746e3"></path><path d="M697 322.7L726 313L699 282.1Z" fill="#472ea5" stroke="#472ea5"></path><path d="M699 282.1L739 261.3L692 233Z" fill="#331f7e" stroke="#331f7e"></path><path d="M662 80.6L640 68.7L618 161.4Z" fill="#331f7e" stroke="#331f7e"></path><path d="M662 80.6L618 161.4L661 169.6Z" fill="#5136b9" stroke="#5136b9"></path><path d="M662 80.6L661 169.6L701 106.4Z" fill="#6242d8" stroke="#6242d8"></path><path d="M769 458.6L711 373.6L670 402.7Z" fill="#5136b9" stroke="#5136b9"></path><path d="M670 402.7L711 373.6L682 340.7Z" fill="#382388" stroke="#382388"></path><path d="M271 426.4L286 458.3L322 404.7Z" fill="#5136b9" stroke="#5136b9"></path><path d="M402 566.3L486 532.4L423 498.3Z" fill="#422a9b" stroke="#422a9b"></path><path d="M494 0L491 0L470 65.6Z" fill="#331f7e" stroke="#331f7e"></path><path d="M448 15.9L420 -7.1L439 17.7Z" fill="#5136b9" stroke="#5136b9"></path><path d="M494 0L470 65.6L555 36.7Z" fill="#573ac3" stroke="#573ac3"></path><path d="M494 0L555 36.7L545 0Z" fill="#6746e3" stroke="#6746e3"></path><path d="M545 0L555 36.7L569 0Z" fill="#6746e3" stroke="#6746e3"></path><path d="M729 166.3L661 169.6L692 233Z" fill="#5c3ece" stroke="#5c3ece"></path><path d="M760 200.4L739 261.3L769 242Z" fill="#472ea5" stroke="#472ea5"></path><path d="M726 313L739 261.3L699 282.1Z" fill="#573ac3" stroke="#573ac3"></path><path d="M206 397.6L227 392.6L189 359.7Z" fill="#5c3ece" stroke="#5c3ece"></path><path d="M228 333.9L227 392.6L274 390.9Z" fill="#422a9b" stroke="#422a9b"></path><path d="M255 481.6L285 471.6L286 458.3Z" fill="#4c32af" stroke="#4c32af"></path><path d="M285 471.6L341 509.4L328 455.3Z" fill="#6242d8" stroke="#6242d8"></path><path d="M400 501.3L402 566.3L423 498.3Z" fill="#5136b9" stroke="#5136b9"></path><path d="M263 142.6L204 197.4L246 216.1Z" fill="#422a9b" stroke="#422a9b"></path><path d="M168 331.9L189 359.7L228 333.9Z" fill="#5c3ece" stroke="#5c3ece"></path><path d="M223 136.4L204 197.4L263 142.6Z" fill="#573ac3" stroke="#573ac3"></path><path d="M248 441.4L286 458.3L271 426.4Z" fill="#3d2691" stroke="#3d2691"></path><path d="M286 458.3L285 471.6L328 455.3Z" fill="#472ea5" stroke="#472ea5"></path><path d="M569 0L582 46.9L606 -5.1Z" fill="#331f7e" stroke="#331f7e"></path><path d="M569 0L555 36.7L582 46.9Z" fill="#472ea5" stroke="#472ea5"></path><path d="M603 519.1L605 510.4L575 499.3Z" fill="#573ac3" stroke="#573ac3"></path><path d="M575 499.3L605 510.4L572 465.6Z" fill="#5c3ece" stroke="#5c3ece"></path><path d="M253 75.7L309 115.4L313 106.9Z" fill="#4c32af" stroke="#4c32af"></path><path d="M545 0L420 -7.1L494 0Z" fill="#3d2691" stroke="#3d2691"></path><path d="M494 0L420 -7.1L491 0Z" fill="#4c32af" stroke="#4c32af"></path><path d="M491 0L420 -7.1L448 15.9Z" fill="#472ea5" stroke="#472ea5"></path><path d="M439 17.7L420 -7.1L405 66.9Z" fill="#331f7e" stroke="#331f7e"></path><path d="M314 19.9L253 75.7L313 106.9Z" fill="#5c3ece" stroke="#5c3ece"></path><path d="M760 200.4L729 166.3L692 233Z" fill="#3d2691" stroke="#3d2691"></path><path d="M227 392.6L248 441.4L261 398.9Z" fill="#3d2691" stroke="#3d2691"></path><path d="M723 124.6L701 106.4L661 169.6Z" fill="#472ea5" stroke="#472ea5"></path><path d="M637 32.7L582 46.9L640 68.7Z" fill="#573ac3" stroke="#573ac3"></path><path d="M223 136.4L196 190.4L204 197.4Z" fill="#4c32af" stroke="#4c32af"></path><path d="M204 197.4L166 258.1L225 241.3Z" fill="#331f7e" stroke="#331f7e"></path><path d="M562 579.1L603 519.1L575 499.3Z" fill="#3d2691" stroke="#3d2691"></path><path d="M605 510.4L691 523.4L670 402.7Z" fill="#5136b9" stroke="#5136b9"></path><path d="M637 32.7L640 68.7L655 21.9Z" fill="#4c32af" stroke="#4c32af"></path><path d="M545 0L606 -5.1L420 -7.1Z" fill="#472ea5" stroke="#472ea5"></path><path d="M420 -7.1L365 0L405 66.9Z" fill="#5136b9" stroke="#5136b9"></path><path d="M420 -7.1L363 -0.1L365 0Z" fill="#422a9b" stroke="#422a9b"></path><path d="M365 0L363 -0.1L350 56.7Z" fill="#422a9b" stroke="#422a9b"></path><path d="M655 21.9L640 68.7L662 80.6Z" fill="#422a9b" stroke="#422a9b"></path><path d="M314 19.9L313 106.9L350 56.7Z" fill="#573ac3" stroke="#573ac3"></path><path d="M223 136.4L171 167.3L196 190.4Z" fill="#422a9b" stroke="#422a9b"></path><path d="M723 124.6L711 107.6L701 106.4Z" fill="#573ac3" stroke="#573ac3"></path><path d="M701 106.4L706 44.7L662 80.6Z" fill="#5136b9" stroke="#5136b9"></path><path d="M729 166.3L723 124.6L661 169.6Z" fill="#422a9b" stroke="#422a9b"></path><path d="M768 179.6L737 152.3L729 166.3Z" fill="#573ac3" stroke="#573ac3"></path><path d="M729 166.3L737 152.3L723 124.6Z" fill="#3d2691" stroke="#3d2691"></path><path d="M341 0L314 19.9L350 56.7Z" fill="#382388" stroke="#382388"></path><path d="M189 359.7L227 392.6L228 333.9Z" fill="#3d2691" stroke="#3d2691"></path><path d="M227 392.6L206 397.6L248 441.4Z" fill="#5c3ece" stroke="#5c3ece"></path><path d="M166 258.1L228 333.9L225 241.3Z" fill="#382388" stroke="#382388"></path><path d="M420 -7.1L341 0L363 -0.1Z" fill="#5136b9" stroke="#5136b9"></path><path d="M363 -0.1L341 0L350 56.7Z" fill="#472ea5" stroke="#472ea5"></path><path d="M769 242L739 261.3L774 290Z" fill="#573ac3" stroke="#573ac3"></path><path d="M739 261.3L760 200.4L692 233Z" fill="#3d2691" stroke="#3d2691"></path><path d="M774 290L739 261.3L726 313Z" fill="#382388" stroke="#382388"></path><path d="M248 441.4L255 481.6L286 458.3Z" fill="#6746e3" stroke="#6746e3"></path><path d="M285 471.6L236 535.3L341 509.4Z" fill="#6242d8" stroke="#6242d8"></path><path d="M190 482.3L255 481.6L248 441.4Z" fill="#6242d8" stroke="#6242d8"></path><path d="M143 213.4L166 258.1L204 197.4Z" fill="#472ea5" stroke="#472ea5"></path><path d="M623 0L582 46.9L637 32.7Z" fill="#422a9b" stroke="#422a9b"></path><path d="M623 0L606 -5.1L582 46.9Z" fill="#5136b9" stroke="#5136b9"></path><path d="M569 0L606 -5.1L545 0Z" fill="#5136b9" stroke="#5136b9"></path><path d="M208 106.9L223 136.4L253 75.7Z" fill="#5c3ece" stroke="#5c3ece"></path><path d="M208 106.9L199 124.7L223 136.4Z" fill="#6746e3" stroke="#6746e3"></path><path d="M196 190.4L143 213.4L204 197.4Z" fill="#331f7e" stroke="#331f7e"></path><path d="M773 305.1L726 313L775 338.9Z" fill="#331f7e" stroke="#331f7e"></path><path d="M773 305.1L774 290L726 313Z" fill="#472ea5" stroke="#472ea5"></path><path d="M383 600L366 600L380 601.1Z" fill="#331f7e" stroke="#331f7e"></path><path d="M341 509.4L402 566.3L400 501.3Z" fill="#6242d8" stroke="#6242d8"></path><path d="M486 532.4L562 579.1L575 499.3Z" fill="#331f7e" stroke="#331f7e"></path><path d="M775 338.9L726 313L711 373.6Z" fill="#4c32af" stroke="#4c32af"></path><path d="M166 46.7L208 106.9L253 75.7Z" fill="#422a9b" stroke="#422a9b"></path><path d="M189 359.7L185 383.9L206 397.6Z" fill="#5136b9" stroke="#5136b9"></path><path d="M167 449.6L190 482.3L248 441.4Z" fill="#5c3ece" stroke="#5c3ece"></path><path d="M147 392.7L185 383.9L189 359.7Z" fill="#573ac3" stroke="#573ac3"></path><path d="M166 258.1L168 331.9L228 333.9Z" fill="#6746e3" stroke="#6746e3"></path><path d="M706 44.7L655 21.9L662 80.6Z" fill="#6746e3" stroke="#6746e3"></path><path d="M706 44.7L701 106.4L711 107.6Z" fill="#331f7e" stroke="#331f7e"></path><path d="M633 0L623 0L637 32.7Z" fill="#5c3ece" stroke="#5c3ece"></path><path d="M341 0L313 0L314 19.9Z" fill="#472ea5" stroke="#472ea5"></path><path d="M314 19.9L251 0L253 75.7Z" fill="#422a9b" stroke="#422a9b"></path><path d="M226 -15.1L313 0L341 0Z" fill="#6746e3" stroke="#6746e3"></path><path d="M737 152.3L747 128.7L723 124.6Z" fill="#6242d8" stroke="#6242d8"></path><path d="M723 124.6L739 111.4L711 107.6Z" fill="#472ea5" stroke="#472ea5"></path><path d="M786 171.3L747 128.7L737 152.3Z" fill="#5136b9" stroke="#5136b9"></path><path d="M768 179.6L729 166.3L760 200.4Z" fill="#5c3ece" stroke="#5c3ece"></path><path d="M786 171.3L768 179.6L760 200.4Z" fill="#331f7e" stroke="#331f7e"></path><path d="M786 171.3L760 200.4L769 242Z" fill="#6746e3" stroke="#6746e3"></path><path d="M747 128.7L739 111.4L723 124.6Z" fill="#472ea5" stroke="#472ea5"></path><path d="M655 21.9L633 0L637 32.7Z" fill="#422a9b" stroke="#422a9b"></path><path d="M623 0L633 0L606 -5.1Z" fill="#6746e3" stroke="#6746e3"></path><path d="M773 305.1L825 288.1L774 290Z" fill="#5c3ece" stroke="#5c3ece"></path><path d="M815 345.7L775 338.9L808 398.6Z" fill="#6242d8" stroke="#6242d8"></path><path d="M147 74.6L171 167.3L199 124.7Z" fill="#6746e3" stroke="#6746e3"></path><path d="M199 124.7L171 167.3L223 136.4Z" fill="#422a9b" stroke="#422a9b"></path><path d="M383 600L409 576.1L402 566.3Z" fill="#3d2691" stroke="#3d2691"></path><path d="M402 566.3L409 576.1L486 532.4Z" fill="#472ea5" stroke="#472ea5"></path><path d="M171 167.3L167 178.6L196 190.4Z" fill="#331f7e" stroke="#331f7e"></path><path d="M166 258.1L153 277.1L168 331.9Z" fill="#472ea5" stroke="#472ea5"></path><path d="M152 262L153 277.1L166 258.1Z" fill="#422a9b" stroke="#422a9b"></path><path d="M143 213.4L152 262L166 258.1Z" fill="#573ac3" stroke="#573ac3"></path><path d="M739 111.4L706 44.7L711 107.6Z" fill="#5c3ece" stroke="#5c3ece"></path><path d="M655 21.9L730 -21.1L633 0Z" fill="#5136b9" stroke="#5136b9"></path><path d="M508 600L562 579.1L486 532.4Z" fill="#472ea5" stroke="#472ea5"></path><path d="M603 519.1L691 523.4L605 510.4Z" fill="#472ea5" stroke="#472ea5"></path><path d="M147 392.7L172 411.4L185 383.9Z" fill="#4c32af" stroke="#4c32af"></path><path d="M185 383.9L172 411.4L206 397.6Z" fill="#6746e3" stroke="#6746e3"></path><path d="M147 392.7L189 359.7L168 331.9Z" fill="#3d2691" stroke="#3d2691"></path><path d="M167 178.6L143 213.4L196 190.4Z" fill="#382388" stroke="#382388"></path><path d="M152 262L126 279.1L153 277.1Z" fill="#573ac3" stroke="#573ac3"></path><path d="M153 277.1L126 279.1L168 331.9Z" fill="#573ac3" stroke="#573ac3"></path><path d="M99 234.3L94 139.6L82 234.4Z" fill="#4c32af" stroke="#4c32af"></path><path d="M747 128.7L770 115.7L739 111.4Z" fill="#573ac3" stroke="#573ac3"></path><path d="M739 111.4L808 72.9L706 44.7Z" fill="#5136b9" stroke="#5136b9"></path><path d="M768 179.6L786 171.3L737 152.3Z" fill="#3d2691" stroke="#3d2691"></path><path d="M826 170.3L786 171.3L769 242Z" fill="#5136b9" stroke="#5136b9"></path><path d="M825 288.1L769 242L774 290Z" fill="#3d2691" stroke="#3d2691"></path><path d="M562 579.1L617 566.3L603 519.1Z" fill="#422a9b" stroke="#422a9b"></path><path d="M383 600L434 600L409 576.1Z" fill="#382388" stroke="#382388"></path><path d="M409 576.1L434 600L486 532.4Z" fill="#5c3ece" stroke="#5c3ece"></path><path d="M434 600L508 600L486 532.4Z" fill="#472ea5" stroke="#472ea5"></path><path d="M562 579.1L573 600L617 566.3Z" fill="#6746e3" stroke="#6746e3"></path><path d="M786 171.3L770 115.7L747 128.7Z" fill="#4c32af" stroke="#4c32af"></path><path d="M617 566.3L691 523.4L603 519.1Z" fill="#3d2691" stroke="#3d2691"></path><path d="M723 527.4L698 522.1L698 559.3Z" fill="#422a9b" stroke="#422a9b"></path><path d="M691 523.4L698 522.1L670 402.7Z" fill="#331f7e" stroke="#331f7e"></path><path d="M117 252L126 279.1L152 262Z" fill="#5136b9" stroke="#5136b9"></path><path d="M402 566.3L341 509.4L366 600Z" fill="#422a9b" stroke="#422a9b"></path><path d="M383 600L402 566.3L366 600Z" fill="#422a9b" stroke="#422a9b"></path><path d="M226 -15.1L251 0L313 0Z" fill="#4c32af" stroke="#4c32af"></path><path d="M313 0L251 0L314 19.9Z" fill="#6242d8" stroke="#6242d8"></path><path d="M208 106.9L147 74.6L199 124.7Z" fill="#6242d8" stroke="#6242d8"></path><path d="M99 234.3L117 252L143 213.4Z" fill="#4c32af" stroke="#4c32af"></path><path d="M366 600L316 600L356 610.1Z" fill="#6242d8" stroke="#6242d8"></path><path d="M383 600L380 601.1L434 600Z" fill="#331f7e" stroke="#331f7e"></path><path d="M434 600L522 610.1L508 600Z" fill="#5c3ece" stroke="#5c3ece"></path><path d="M122 337.7L147 392.7L168 331.9Z" fill="#6242d8" stroke="#6242d8"></path><path d="M236 535.3L285 471.6L255 481.6Z" fill="#3d2691" stroke="#3d2691"></path><path d="M508 600L522 610.1L562 579.1Z" fill="#382388" stroke="#382388"></path><path d="M356 610.1L522 610.1L434 600Z" fill="#5c3ece" stroke="#5c3ece"></path><path d="M248 441.4L206 397.6L167 449.6Z" fill="#6242d8" stroke="#6242d8"></path><path d="M522 610.1L573 600L562 579.1Z" fill="#6242d8" stroke="#6242d8"></path><path d="M698 559.3L698 522.1L691 523.4Z" fill="#4c32af" stroke="#4c32af"></path><path d="M167 449.6L206 397.6L172 411.4Z" fill="#472ea5" stroke="#472ea5"></path><path d="M143 213.4L94 139.6L99 234.3Z" fill="#422a9b" stroke="#422a9b"></path><path d="M143 213.4L117 252L152 262Z" fill="#382388" stroke="#382388"></path><path d="M126 279.1L122 337.7L168 331.9Z" fill="#3d2691" stroke="#3d2691"></path><path d="M147 392.7L167 449.6L172 411.4Z" fill="#382388" stroke="#382388"></path><path d="M99 318.9L122 337.7L126 279.1Z" fill="#472ea5" stroke="#472ea5"></path><path d="M132 474.4L151 500.1L167 449.6Z" fill="#331f7e" stroke="#331f7e"></path><path d="M808 398.6L775 338.9L711 373.6Z" fill="#6242d8" stroke="#6242d8"></path><path d="M775 338.9L815 345.7L773 305.1Z" fill="#4c32af" stroke="#4c32af"></path><path d="M204 508.4L236 535.3L255 481.6Z" fill="#6242d8" stroke="#6242d8"></path><path d="M698 522.1L769 458.6L670 402.7Z" fill="#422a9b" stroke="#422a9b"></path><path d="M815 345.7L825 288.1L773 305.1Z" fill="#5c3ece" stroke="#5c3ece"></path><path d="M786 171.3L826 170.3L770 115.7Z" fill="#6242d8" stroke="#6242d8"></path><path d="M190 482.3L204 508.4L255 481.6Z" fill="#6746e3" stroke="#6746e3"></path><path d="M178 517.1L204 508.4L190 482.3Z" fill="#573ac3" stroke="#573ac3"></path><path d="M316 600L366 600L341 509.4Z" fill="#4c32af" stroke="#4c32af"></path><path d="M366 600L356 610.1L380 601.1Z" fill="#3d2691" stroke="#3d2691"></path><path d="M380 601.1L356 610.1L434 600Z" fill="#422a9b" stroke="#422a9b"></path><path d="M226 -15.1L226 0L251 0Z" fill="#5c3ece" stroke="#5c3ece"></path><path d="M251 0L226 0L253 75.7Z" fill="#422a9b" stroke="#422a9b"></path><path d="M769 458.6L808 398.6L711 373.6Z" fill="#382388" stroke="#382388"></path><path d="M815 345.7L839 299.1L825 288.1Z" fill="#382388" stroke="#382388"></path><path d="M698 559.3L691 523.4L617 566.3Z" fill="#573ac3" stroke="#573ac3"></path><path d="M698 522.1L767 493.6L769 458.6Z" fill="#6746e3" stroke="#6746e3"></path><path d="M829 364.9L827 343.9L815 345.7Z" fill="#331f7e" stroke="#331f7e"></path><path d="M280 596.1L316 600L341 509.4Z" fill="#6746e3" stroke="#6746e3"></path><path d="M604 611.1L617 566.3L573 600Z" fill="#6746e3" stroke="#6746e3"></path><path d="M604 611.1L628 600L617 566.3Z" fill="#6746e3" stroke="#6746e3"></path><path d="M0 623.1L604 611.1L522 610.1Z" fill="#422a9b" stroke="#422a9b"></path><path d="M522 610.1L604 611.1L573 600Z" fill="#573ac3" stroke="#573ac3"></path><path d="M900 249.1L826 170.3L825 288.1Z" fill="#331f7e" stroke="#331f7e"></path><path d="M825 288.1L826 170.3L769 242Z" fill="#6746e3" stroke="#6746e3"></path><path d="M755 0L728 0L706 44.7Z" fill="#3d2691" stroke="#3d2691"></path><path d="M641 600L698 559.3L617 566.3Z" fill="#6746e3" stroke="#6746e3"></path><path d="M827 343.9L839 299.1L815 345.7Z" fill="#5136b9" stroke="#5136b9"></path><path d="M143 213.4L167 178.6L94 139.6Z" fill="#6242d8" stroke="#6242d8"></path><path d="M117 252L97 249.3L126 279.1Z" fill="#6242d8" stroke="#6242d8"></path><path d="M730 -21.1L728 0L755 0Z" fill="#573ac3" stroke="#573ac3"></path><path d="M706 44.7L728 0L655 21.9Z" fill="#472ea5" stroke="#472ea5"></path><path d="M633 0L730 -21.1L606 -5.1Z" fill="#382388" stroke="#382388"></path><path d="M99 234.3L97 249.3L117 252Z" fill="#6746e3" stroke="#6746e3"></path><path d="M420 -7.1L226 -15.1L341 0Z" fill="#5c3ece" stroke="#5c3ece"></path><path d="M226 0L209 0L253 75.7Z" fill="#573ac3" stroke="#573ac3"></path><path d="M730 -21.1L226 -15.1L420 -7.1Z" fill="#382388" stroke="#382388"></path><path d="M226 -15.1L209 0L226 0Z" fill="#382388" stroke="#382388"></path><path d="M829 374.6L829 364.9L815 345.7Z" fill="#5136b9" stroke="#5136b9"></path><path d="M827 343.9L861 334L839 299.1Z" fill="#6242d8" stroke="#6242d8"></path><path d="M97 249.3L99 318.9L126 279.1Z" fill="#6242d8" stroke="#6242d8"></path><path d="M122 337.7L93 346.7L147 392.7Z" fill="#422a9b" stroke="#422a9b"></path><path d="M769 458.6L817 505.1L808 398.6Z" fill="#6242d8" stroke="#6242d8"></path><path d="M808 398.6L829 374.6L815 345.7Z" fill="#573ac3" stroke="#573ac3"></path><path d="M723 527.4L767 493.6L698 522.1Z" fill="#573ac3" stroke="#573ac3"></path><path d="M730 542.1L767 493.6L723 527.4Z" fill="#5136b9" stroke="#5136b9"></path><path d="M628 600L641 600L617 566.3Z" fill="#382388" stroke="#382388"></path><path d="M604 611.1L641 600L628 600Z" fill="#573ac3" stroke="#573ac3"></path><path d="M209 0L166 46.7L253 75.7Z" fill="#5136b9" stroke="#5136b9"></path><path d="M166 46.7L147 74.6L208 106.9Z" fill="#4c32af" stroke="#4c32af"></path><path d="M887 424.7L829 374.6L808 398.6Z" fill="#6242d8" stroke="#6242d8"></path><path d="M829 364.9L861 334L827 343.9Z" fill="#3d2691" stroke="#3d2691"></path><path d="M737 555.3L730 542.1L698 559.3Z" fill="#382388" stroke="#382388"></path><path d="M698 559.3L730 542.1L723 527.4Z" fill="#331f7e" stroke="#331f7e"></path><path d="M278 600L280 596.1L250 600Z" fill="#422a9b" stroke="#422a9b"></path><path d="M236 535.3L280 596.1L341 509.4Z" fill="#5136b9" stroke="#5136b9"></path><path d="M316 600L303 610.1L356 610.1Z" fill="#331f7e" stroke="#331f7e"></path><path d="M280 596.1L303 610.1L316 600Z" fill="#472ea5" stroke="#472ea5"></path><path d="M356 610.1L0 623.1L522 610.1Z" fill="#4c32af" stroke="#4c32af"></path><path d="M204 508.4L178 517.1L236 535.3Z" fill="#6746e3" stroke="#6746e3"></path><path d="M151 500.1L178 517.1L190 482.3Z" fill="#3d2691" stroke="#3d2691"></path><path d="M151 500.1L190 482.3L167 449.6Z" fill="#6242d8" stroke="#6242d8"></path><path d="M250 600L280 596.1L236 535.3Z" fill="#382388" stroke="#382388"></path><path d="M280 596.1L278 600L303 610.1Z" fill="#3d2691" stroke="#3d2691"></path><path d="M48 353L93 346.7L99 318.9Z" fill="#5136b9" stroke="#5136b9"></path><path d="M99 318.9L93 346.7L122 337.7Z" fill="#6242d8" stroke="#6242d8"></path><path d="M99 234.3L82 234.4L97 249.3Z" fill="#331f7e" stroke="#331f7e"></path><path d="M97 249.3L74 239L99 318.9Z" fill="#472ea5" stroke="#472ea5"></path><path d="M94 139.6L167 178.6L171 167.3Z" fill="#4c32af" stroke="#4c32af"></path><path d="M728 0L730 -21.1L655 21.9Z" fill="#422a9b" stroke="#422a9b"></path><path d="M606 -5.1L730 -21.1L420 -7.1Z" fill="#4c32af" stroke="#4c32af"></path><path d="M808 72.9L739 111.4L770 115.7Z" fill="#472ea5" stroke="#472ea5"></path><path d="M858 118.4L808 72.9L770 115.7Z" fill="#472ea5" stroke="#472ea5"></path><path d="M226 -15.1L183 0L209 0Z" fill="#331f7e" stroke="#331f7e"></path><path d="M209 0L183 0L166 46.7Z" fill="#5c3ece" stroke="#5c3ece"></path><path d="M166 46.7L119 68.9L147 74.6Z" fill="#5136b9" stroke="#5136b9"></path><path d="M808 72.9L755 0L706 44.7Z" fill="#382388" stroke="#382388"></path><path d="M728 600L737 555.3L698 559.3Z" fill="#5136b9" stroke="#5136b9"></path><path d="M730 542.1L781 565.3L767 493.6Z" fill="#6746e3" stroke="#6746e3"></path><path d="M900 345.9L861 334L900 386.7Z" fill="#382388" stroke="#382388"></path><path d="M132 474.4L167 449.6L147 392.7Z" fill="#422a9b" stroke="#422a9b"></path><path d="M237 599.1L250 600L236 535.3Z" fill="#472ea5" stroke="#472ea5"></path><path d="M106 469.3L132 474.4L147 392.7Z" fill="#472ea5" stroke="#472ea5"></path><path d="M24 159.3L74 239L82 234.4Z" fill="#4c32af" stroke="#4c32af"></path><path d="M82 234.4L74 239L97 249.3Z" fill="#4c32af" stroke="#4c32af"></path><path d="M119 68.9L94 139.6L147 74.6Z" fill="#382388" stroke="#382388"></path><path d="M147 74.6L94 139.6L171 167.3Z" fill="#5c3ece" stroke="#5c3ece"></path><path d="M817 505.1L769 458.6L767 493.6Z" fill="#573ac3" stroke="#573ac3"></path><path d="M829 374.6L861 334L829 364.9Z" fill="#3d2691" stroke="#3d2691"></path><path d="M900 146.4L858 118.4L826 170.3Z" fill="#331f7e" stroke="#331f7e"></path><path d="M826 170.3L858 118.4L770 115.7Z" fill="#6242d8" stroke="#6242d8"></path><path d="M237 599.1L236 535.3L172 600Z" fill="#331f7e" stroke="#331f7e"></path><path d="M278 600L250 600L303 610.1Z" fill="#331f7e" stroke="#331f7e"></path><path d="M641 600L693 600L698 559.3Z" fill="#3d2691" stroke="#3d2691"></path><path d="M604 611.1L693 600L641 600Z" fill="#3d2691" stroke="#3d2691"></path><path d="M111 59.9L119 68.9L166 46.7Z" fill="#472ea5" stroke="#472ea5"></path><path d="M172 600L236 535.3L178 517.1Z" fill="#472ea5" stroke="#472ea5"></path><path d="M250 600L237 599.1L303 610.1Z" fill="#6746e3" stroke="#6746e3"></path><path d="M119 0L111 59.9L166 46.7Z" fill="#6746e3" stroke="#6746e3"></path><path d="M92 76.7L74 129.6L94 139.6Z" fill="#6242d8" stroke="#6242d8"></path><path d="M99 508.3L125 536.3L151 500.1Z" fill="#472ea5" stroke="#472ea5"></path><path d="M151 500.1L125 536.3L178 517.1Z" fill="#422a9b" stroke="#422a9b"></path><path d="M47 426.6L106 469.3L147 392.7Z" fill="#331f7e" stroke="#331f7e"></path><path d="M47 426.6L147 392.7L93 346.7Z" fill="#6746e3" stroke="#6746e3"></path><path d="M900 249.1L825 288.1L839 299.1Z" fill="#6242d8" stroke="#6242d8"></path><path d="M808 72.9L790 1.9L755 0Z" fill="#3d2691" stroke="#3d2691"></path><path d="M801 0L790 1.9L831 17.9Z" fill="#5c3ece" stroke="#5c3ece"></path><path d="M755 0L790 1.9L730 -21.1Z" fill="#6746e3" stroke="#6746e3"></path><path d="M92 76.7L94 139.6L119 68.9Z" fill="#472ea5" stroke="#472ea5"></path><path d="M94 139.6L24 159.3L82 234.4Z" fill="#422a9b" stroke="#422a9b"></path><path d="M817 505.1L767 493.6L810 528.3Z" fill="#3d2691" stroke="#3d2691"></path><path d="M818 509.4L817 505.1L810 528.3Z" fill="#331f7e" stroke="#331f7e"></path><path d="M604 611.1L728 600L693 600Z" fill="#382388" stroke="#382388"></path><path d="M693 600L728 600L698 559.3Z" fill="#5136b9" stroke="#5136b9"></path><path d="M111 59.9L92 76.7L119 68.9Z" fill="#4c32af" stroke="#4c32af"></path><path d="M810 528.3L767 493.6L781 565.3Z" fill="#3d2691" stroke="#3d2691"></path><path d="M900 386.7L861 334L829 374.6Z" fill="#4c32af" stroke="#4c32af"></path><path d="M831 17.9L790 1.9L808 72.9Z" fill="#472ea5" stroke="#472ea5"></path><path d="M790 1.9L801 0L730 -21.1Z" fill="#5c3ece" stroke="#5c3ece"></path><path d="M746 600L763 577.3L737 555.3Z" fill="#573ac3" stroke="#573ac3"></path><path d="M781 565.3L730 542.1L737 555.3Z" fill="#3d2691" stroke="#3d2691"></path><path d="M25 313.1L99 318.9L74 239Z" fill="#422a9b" stroke="#422a9b"></path><path d="M25 313.1L48 353L99 318.9Z" fill="#4c32af" stroke="#4c32af"></path><path d="M900 345.9L900 280L861 334Z" fill="#5136b9" stroke="#5136b9"></path><path d="M861 334L900 280L839 299.1Z" fill="#331f7e" stroke="#331f7e"></path><path d="M900 280L900 249.1L839 299.1Z" fill="#331f7e" stroke="#331f7e"></path><path d="M763 577.3L781 565.3L737 555.3Z" fill="#5c3ece" stroke="#5c3ece"></path><path d="M728 600L746 600L737 555.3Z" fill="#422a9b" stroke="#422a9b"></path><path d="M763 577.3L834 600L781 565.3Z" fill="#382388" stroke="#382388"></path><path d="M604 611.1L746 600L728 600Z" fill="#5c3ece" stroke="#5c3ece"></path><path d="M900 249.1L900 199.3L826 170.3Z" fill="#6746e3" stroke="#6746e3"></path><path d="M900 49.9L831 17.9L808 72.9Z" fill="#422a9b" stroke="#422a9b"></path><path d="M99 508.3L132 474.4L106 469.3Z" fill="#3d2691" stroke="#3d2691"></path><path d="M99 508.3L151 500.1L132 474.4Z" fill="#6242d8" stroke="#6242d8"></path><path d="M887 424.7L808 398.6L817 505.1Z" fill="#331f7e" stroke="#331f7e"></path><path d="M887 424.7L817 505.1L900 466.3Z" fill="#4c32af" stroke="#4c32af"></path><path d="M900 72.7L808 72.9L858 118.4Z" fill="#382388" stroke="#382388"></path><path d="M226 -15.1L119 0L183 0Z" fill="#472ea5" stroke="#472ea5"></path><path d="M183 0L119 0L166 46.7Z" fill="#573ac3" stroke="#573ac3"></path><path d="M111 59.9L69 34.7L92 76.7Z" fill="#382388" stroke="#382388"></path><path d="M80 494.1L99 508.3L106 469.3Z" fill="#5136b9" stroke="#5136b9"></path><path d="M824 541.1L826 533.4L810 528.3Z" fill="#472ea5" stroke="#472ea5"></path><path d="M810 528.3L826 533.4L818 509.4Z" fill="#4c32af" stroke="#4c32af"></path><path d="M824 541.1L810 528.3L781 565.3Z" fill="#6746e3" stroke="#6746e3"></path><path d="M125 536.3L172 600L178 517.1Z" fill="#382388" stroke="#382388"></path><path d="M237 599.1L172 600L303 610.1Z" fill="#6242d8" stroke="#6242d8"></path><path d="M127 600L172 600L125 536.3Z" fill="#573ac3" stroke="#573ac3"></path><path d="M0 269L25 313.1L74 239Z" fill="#6242d8" stroke="#6242d8"></path><path d="M47 426.6L80 494.1L106 469.3Z" fill="#472ea5" stroke="#472ea5"></path><path d="M900 466.3L817 505.1L900 477.6Z" fill="#3d2691" stroke="#3d2691"></path><path d="M887 424.7L900 386.7L829 374.6Z" fill="#4c32af" stroke="#4c32af"></path><path d="M909 171.6L900 146.4L826 170.3Z" fill="#6746e3" stroke="#6746e3"></path><path d="M900 477.6L817 505.1L870 538.4Z" fill="#6242d8" stroke="#6242d8"></path><path d="M870 538.4L824 541.1L834 600Z" fill="#382388" stroke="#382388"></path><path d="M25 313.1L23 324.7L48 353Z" fill="#422a9b" stroke="#422a9b"></path><path d="M47 426.6L93 346.7L48 353Z" fill="#472ea5" stroke="#472ea5"></path><path d="M63 600L127 600L125 536.3Z" fill="#5c3ece" stroke="#5c3ece"></path><path d="M900 249.1L909 171.6L900 199.3Z" fill="#6242d8" stroke="#6242d8"></path><path d="M900 199.3L909 171.6L826 170.3Z" fill="#573ac3" stroke="#573ac3"></path><path d="M900 280L909 171.6L900 249.1Z" fill="#5c3ece" stroke="#5c3ece"></path><path d="M900 345.9L909 171.6L900 280Z" fill="#5136b9" stroke="#5136b9"></path><path d="M918 600L909 171.6L900 345.9Z" fill="#5c3ece" stroke="#5c3ece"></path><path d="M0 388.7L47 426.6L48 353Z" fill="#382388" stroke="#382388"></path><path d="M0 101.7L24 159.3L74 129.6Z" fill="#5c3ece" stroke="#5c3ece"></path><path d="M74 129.6L24 159.3L94 139.6Z" fill="#472ea5" stroke="#472ea5"></path><path d="M25 313.1L0 335.9L23 324.7Z" fill="#5c3ece" stroke="#5c3ece"></path><path d="M0 101.7L74 129.6L0 85.6Z" fill="#382388" stroke="#382388"></path><path d="M900 146.4L902 117.7L858 118.4Z" fill="#3d2691" stroke="#3d2691"></path><path d="M909 171.6L902 117.7L900 146.4Z" fill="#5136b9" stroke="#5136b9"></path><path d="M902 117.7L900 105.6L858 118.4Z" fill="#422a9b" stroke="#422a9b"></path><path d="M119 0L69 34.7L111 59.9Z" fill="#5c3ece" stroke="#5c3ece"></path><path d="M0 231.1L0 269L74 239Z" fill="#422a9b" stroke="#422a9b"></path><path d="M23 324.7L8 356.9L48 353Z" fill="#4c32af" stroke="#4c32af"></path><path d="M0 335.9L8 356.9L23 324.7Z" fill="#382388" stroke="#382388"></path><path d="M47 426.6L44 494.6L80 494.1Z" fill="#382388" stroke="#382388"></path><path d="M0 230.3L0 231.1L74 239Z" fill="#6746e3" stroke="#6746e3"></path><path d="M0 205.4L0 230.3L74 239Z" fill="#6746e3" stroke="#6746e3"></path><path d="M909 171.6L900 72.7L902 117.7Z" fill="#5136b9" stroke="#5136b9"></path><path d="M902 117.7L900 72.7L900 105.6Z" fill="#331f7e" stroke="#331f7e"></path><path d="M900 105.6L900 72.7L858 118.4Z" fill="#472ea5" stroke="#472ea5"></path><path d="M0 101.7L0 205.4L24 159.3Z" fill="#472ea5" stroke="#472ea5"></path><path d="M24 159.3L0 205.4L74 239Z" fill="#573ac3" stroke="#573ac3"></path><path d="M0 269L0 335.9L25 313.1Z" fill="#422a9b" stroke="#422a9b"></path><path d="M817 505.1L818 509.4L870 538.4Z" fill="#331f7e" stroke="#331f7e"></path><path d="M887 424.7L900 466.3L900 386.7Z" fill="#573ac3" stroke="#573ac3"></path><path d="M900 386.7L918 600L900 345.9Z" fill="#472ea5" stroke="#472ea5"></path><path d="M63 600L125 536.3L99 508.3Z" fill="#4c32af" stroke="#4c32af"></path><path d="M172 600L0 623.1L303 610.1Z" fill="#472ea5" stroke="#472ea5"></path><path d="M44 494.6L99 508.3L80 494.1Z" fill="#5c3ece" stroke="#5c3ece"></path><path d="M870 538.4L818 509.4L826 533.4Z" fill="#472ea5" stroke="#472ea5"></path><path d="M900 466.3L918 600L900 386.7Z" fill="#3d2691" stroke="#3d2691"></path><path d="M119 0L58 17.7L69 34.7Z" fill="#4c32af" stroke="#4c32af"></path><path d="M0 85.6L74 129.6L92 76.7Z" fill="#472ea5" stroke="#472ea5"></path><path d="M900 49.9L869 0L831 17.9Z" fill="#4c32af" stroke="#4c32af"></path><path d="M831 17.9L869 0L801 0Z" fill="#5136b9" stroke="#5136b9"></path><path d="M801 0L869 0L730 -21.1Z" fill="#382388" stroke="#382388"></path><path d="M0 388.7L48 353L8 356.9Z" fill="#422a9b" stroke="#422a9b"></path><path d="M0 444.4L44 494.6L47 426.6Z" fill="#382388" stroke="#382388"></path><path d="M909 171.6L900 49.9L900 72.7Z" fill="#5136b9" stroke="#5136b9"></path><path d="M900 72.7L900 49.9L808 72.9Z" fill="#5136b9" stroke="#5136b9"></path><path d="M834 600L824 541.1L781 565.3Z" fill="#6746e3" stroke="#6746e3"></path><path d="M824 541.1L870 538.4L826 533.4Z" fill="#4c32af" stroke="#4c32af"></path><path d="M0 335.9L0 388.7L8 356.9Z" fill="#472ea5" stroke="#472ea5"></path><path d="M53 0L53 18.9L58 17.7Z" fill="#3d2691" stroke="#3d2691"></path><path d="M58 17.7L53 18.9L69 34.7Z" fill="#5136b9" stroke="#5136b9"></path><path d="M0 388.7L0 406.6L47 426.6Z" fill="#3d2691" stroke="#3d2691"></path><path d="M873 603.1L834 600L746 600Z" fill="#331f7e" stroke="#331f7e"></path><path d="M746 600L834 600L763 577.3Z" fill="#6242d8" stroke="#6242d8"></path><path d="M226 -15.1L53 0L119 0Z" fill="#422a9b" stroke="#422a9b"></path><path d="M119 0L53 0L58 17.7Z" fill="#6242d8" stroke="#6242d8"></path><path d="M0 85.6L92 76.7L69 34.7Z" fill="#4c32af" stroke="#4c32af"></path><path d="M0 85.6L69 34.7L53 18.9Z" fill="#6746e3" stroke="#6746e3"></path><path d="M0 406.6L0 444.4L47 426.6Z" fill="#422a9b" stroke="#422a9b"></path><path d="M50 595.1L63 600L99 508.3Z" fill="#3d2691" stroke="#3d2691"></path><path d="M0 26.9L0 85.6L53 18.9Z" fill="#3d2691" stroke="#3d2691"></path><path d="M900 581.1L900 531.4L870 538.4Z" fill="#5136b9" stroke="#5136b9"></path><path d="M870 538.4L900 531.4L900 477.6Z" fill="#3d2691" stroke="#3d2691"></path><path d="M900 477.6L918 600L900 466.3Z" fill="#5136b9" stroke="#5136b9"></path><path d="M909 171.6L900 0L900 49.9Z" fill="#331f7e" stroke="#331f7e"></path><path d="M900 49.9L900 0L869 0Z" fill="#422a9b" stroke="#422a9b"></path><path d="M869 0L900 0L730 -21.1Z" fill="#6746e3" stroke="#6746e3"></path><path d="M0 444.4L0 479.3L44 494.6Z" fill="#331f7e" stroke="#331f7e"></path><path d="M0 406.6L-17 452.4L0 444.4Z" fill="#6746e3" stroke="#6746e3"></path><path d="M0 444.4L-17 452.4L0 479.3Z" fill="#422a9b" stroke="#422a9b"></path><path d="M0 388.7L-17 452.4L0 406.6Z" fill="#382388" stroke="#382388"></path><path d="M0 335.9L-17 452.4L0 388.7Z" fill="#331f7e" stroke="#331f7e"></path><path d="M0 269L-17 452.4L0 335.9Z" fill="#422a9b" stroke="#422a9b"></path><path d="M0 231.1L-17 452.4L0 269Z" fill="#422a9b" stroke="#422a9b"></path><path d="M0 230.3L-17 452.4L0 231.1Z" fill="#422a9b" stroke="#422a9b"></path><path d="M0 205.4L-17 452.4L0 230.3Z" fill="#331f7e" stroke="#331f7e"></path><path d="M0 101.7L-17 452.4L0 205.4Z" fill="#5c3ece" stroke="#5c3ece"></path><path d="M0 85.6L-17 452.4L0 101.7Z" fill="#5136b9" stroke="#5136b9"></path><path d="M50 595.1L99 508.3L44 494.6Z" fill="#4c32af" stroke="#4c32af"></path><path d="M127 600L0 623.1L172 600Z" fill="#5c3ece" stroke="#5c3ece"></path><path d="M50 595.1L44 494.6L0 600Z" fill="#4c32af" stroke="#4c32af"></path><path d="M604 611.1L873 603.1L746 600Z" fill="#4c32af" stroke="#4c32af"></path><path d="M834 600L873 603.1L870 538.4Z" fill="#5c3ece" stroke="#5c3ece"></path><path d="M0 0L0 26.9L53 18.9Z" fill="#573ac3" stroke="#573ac3"></path><path d="M0 85.6L0 26.9L-17 452.4Z" fill="#6242d8" stroke="#6242d8"></path><path d="M0 600L44 494.6L0 479.3Z" fill="#422a9b" stroke="#422a9b"></path><path d="M873 603.1L900 581.1L870 538.4Z" fill="#472ea5" stroke="#472ea5"></path><path d="M900 531.4L918 600L900 477.6Z" fill="#382388" stroke="#382388"></path><path d="M226 -15.1L0 0L53 0Z" fill="#472ea5" stroke="#472ea5"></path><path d="M53 0L0 0L53 18.9Z" fill="#6242d8" stroke="#6242d8"></path><path d="M0 26.9L0 0L-17 452.4Z" fill="#5c3ece" stroke="#5c3ece"></path><path d="M873 603.1L900 600L900 581.1Z" fill="#6242d8" stroke="#6242d8"></path><path d="M900 581.1L918 600L900 531.4Z" fill="#6746e3" stroke="#6746e3"></path><path d="M873 603.1L918 600L900 600Z" fill="#6242d8" stroke="#6242d8"></path><path d="M900 600L918 600L900 581.1Z" fill="#5c3ece" stroke="#5c3ece"></path><path d="M-6 600L0 600L0 479.3Z" fill="#4c32af" stroke="#4c32af"></path><path d="M50 595.1L0 623.1L63 600Z" fill="#573ac3" stroke="#573ac3"></path><path d="M63 600L0 623.1L127 600Z" fill="#422a9b" stroke="#422a9b"></path><path d="M-17 452.4L-6 600L0 479.3Z" fill="#6746e3" stroke="#6746e3"></path><path d="M0 600L0 623.1L50 595.1Z" fill="#5c3ece" stroke="#5c3ece"></path><path d="M-6 600L0 623.1L0 600Z" fill="#3d2691" stroke="#3d2691"></path><path d="M303 610.1L0 623.1L356 610.1Z" fill="#5c3ece" stroke="#5c3ece"></path></g></svg>